//+
Rectangle(2) = {-0.5, -0.5, 0, 1, 1, 0};
//+
Rectangle(3) = {-0.5, -0.5, 0, 1, 1, 0};
//+
Rectangle(4) = {-0.5, -0.5, 0, 1, 1, 0};
//+
Rectangle(5) = {-0.5, -0.5, 0, 1, 1, 0};
//+
Rectangle(6) = {-0.5, -0.5, 0, 1, 1, 0};
//+
Rectangle(7) = {-0.5, -0.5, 0, 1, 1, 0};
//+
Rectangle(8) = {-0.5, -0.5, 0, 1, 1, 0};
//+
Rectangle(9) = {-0.5, -0.5, 0, 1, 1, 0};
//+
Rectangle(10) = {-0.5, -0.5, 0, 1, 1, 0};
//+
Rectangle(11) = {-0.5, -0.5, 0, 1, 1, 0};
//+
Rectangle(12) = {-0.5, -0.5, 0, 1, 1, 0};
//+
Rectangle(13) = {-0.5, -0.5, 0, 1, 1, 0};
//+
Rectangle(14) = {-0.5, -0.5, 0, 1, 1, 0};
//+
Rectangle(15) = {-0.5, -0.5, 0, 1, 1, 0};
//+
Rectangle(16) = {-0.5, -0.5, 0, 1, 1, 0};
//+
Rectangle(17) = {-0.5, -0.5, 0, 1, 1, 0};
//+
Rectangle(18) = {-0.5, -0.5, 0, 1, 1, 0};
//+
Rectangle(19) = {-0.5, -0.5, 0, 1, 1, 0};
//+
Rectangle(20) = {-0.5, -0.5, 0, 1, 1, 0};
//+
Rectangle(21) = {-0.5, -0.5, 0, 1, 1, 0};
//+
Rectangle(22) = {-0.5, -0.5, 0, 1, 1, 0};
//+
Rectangle(23) = {-0.5, -0.5, 0, 1, 1, 0};
//+
Point(1) = {0, 0, 0, 1.0};
//+
Point(2) = {0, 1, 0, 1.0};
//+
Point(3) = {1, 1, 0, 1.0};
//+
Point(4) = {0.2, 0.3, 0, 1.0};
//+
Point(5) = {1, 0, 0, 1.0};
//+
Recursive Delete {
  Point{4}; 
}
//+
Line(1) = {1, 2};
//+
Line(2) = {2, 3};
//+
Line(3) = {3, 5};
//+
Line(4) = {5, 1};
//+
Curve Loop(1) = {1, 2, 3, 4};
//+
Plane Surface(1) = {1};
//+
Point(2) = {0, 1, 0, 0.5};
//+
Point(3) = {1, 1, 0, 0.5};
//+
Point(4) = {1, 0, 0, 0.5};
//+
Line(1) = {1, 2};
//+
Line(2) = {2, 3};
//+
Line(3) = {3, 4};
//+
Line(4) = {4, 1};
//+
Curve Loop(1) = {1, 2, 3, 4};
//+
Plane Surface(1) = {1};
//+
Surface Loop(2) = {1, 3, 5, 2, 4, 6};
//+
Point(2) = {0, 1, 0, 1.0};
//+
Point(3) = {1, 1, 0, 1.0};
//+
Point(4) = {1, 0, 0, 1.0};
//+
Point(5) = {1, 0, 1, 1.0};
//+
Point(6) = {1, 1, 1, 1.0};
//+
Point(7) = {-0.1, 0.6, 0.5, 1.0};
//+
Point(2) = {0, 0, 1, 1.0};
//+
Point(3) = {0, 1, 1, 1.0};
//+
Point(4) = {0, 1, 0, 1.0};
//+
Point(5) = {1, 1, 0, 1.0};
//+
Point(6) = {1, 1, 1, 1.0};
//+
Point(7) = {1, 0, 1, 1.0};
//+
Point(8) = {1, 0, 0, 1.0};
//+
Line(1) = {2, 3};
//+
Line(2) = {3, 6};
//+
Line(3) = {7, 6};
//+
Line(4) = {2, 7};
//+
Line(5) = {7, 8};
//+
Line(6) = {8, 5};
//+
Line(7) = {5, 6};
//+
Line(8) = {5, 4};
//+
Line(9) = {4, 3};
//+
Line(10) = {4, 1};
//+
Line(11) = {1, 2};
//+
Line(12) = {1, 8};
//+
Curve Loop(1) = {1, 2, -3, -4};
//+
Plane Surface(1) = {1};
//+
Curve Loop(2) = {9, -1, -11, -10};
//+
Plane Surface(2) = {2};
//+
Curve Loop(3) = {12, 6, 8, 10};
//+
Plane Surface(3) = {3};
//+
Curve Loop(4) = {2, -7, 8, 9};
//+
Plane Surface(4) = {4};
//+
Curve Loop(5) = {6, 7, -3, 5};
//+
Plane Surface(5) = {5};
//+
Curve Loop(6) = {12, -5, -4, -11};
//+
Plane Surface(6) = {6};
//+
Surface Loop(1) = {1, 2, 4, 5, 3, 6};
//+
Volume(1) = {1};
